<svg width="301" height="56" xmlns="http://www.w3.org/2000/svg" xmlns:xlink="http://www.w3.org/1999/xlink" xml:space="preserve" overflow="hidden"><defs><clipPath id="clip0"><rect x="489" y="332" width="301" height="56"/></clipPath><clipPath id="clip1"><rect x="490" y="333" width="300" height="54"/></clipPath><clipPath id="clip2"><rect x="490" y="333" width="300" height="54"/></clipPath><clipPath id="clip3"><rect x="490" y="333" width="300" height="54"/></clipPath></defs><g clip-path="url(#clip0)" transform="translate(-489 -332)"><g clip-path="url(#clip1)"><g clip-path="url(#clip2)"><g clip-path="url(#clip3)"><path d="M556.117 355.519C550.224 355.519 547.263 352.841 547.263 347.486 547.263 342.132 550.224 339.454 556.117 339.454L573.827 339.454 573.827 344.809 556.983 344.809C554.022 344.809 552.542 345.711 552.542 347.486 552.542 349.262 554.022 350.164 556.983 350.164L564.944 350.164C570.838 350.164 573.799 352.841 573.799 358.196 573.799 363.551 570.838 366.229 564.944 366.229L547.263 366.229 547.263 360.902 564.106 360.902C567.067 360.902 568.547 360 568.547 358.224 568.547 356.449 567.067 355.547 564.106 355.547L556.117 355.547 556.117 355.519Z" fill="#FFFFFF" fill-rule="nonzero" fill-opacity="1"/><path d="M600.419 339.454 605.726 339.454 605.726 357.323C605.726 363.269 602.765 366.257 596.872 366.257L588.017 366.257C582.123 366.257 579.162 363.269 579.162 357.323L579.162 339.454 584.469 339.454 584.469 356.59C584.469 359.465 585.894 360.902 588.715 360.902L596.145 360.902C598.995 360.902 600.419 359.465 600.419 356.562L600.419 339.454Z" fill="#FFFFFF" fill-rule="nonzero" fill-opacity="1"/><path d="M629.05 339.454C634.944 339.454 637.905 342.132 637.905 347.486 637.905 350.474 637.011 352.249 635.251 352.841 637.011 353.433 637.905 355.237 637.905 358.196 637.905 363.551 634.944 366.229 629.05 366.229L611.341 366.229 611.341 339.454 629.05 339.454ZM628.296 350.079C630.642 350.079 631.816 349.206 631.816 347.43 631.816 345.655 630.363 344.781 627.43 344.781L616.033 344.781 616.033 350.108 628.296 350.108 628.296 350.079ZM629.05 355.519 616.648 355.519 616.648 360.874 628.156 360.874C631.117 360.874 632.598 359.972 632.598 358.196 632.598 356.421 631.425 355.519 629.05 355.519Z" fill="#FFFFFF" fill-rule="nonzero" fill-opacity="1"/><path d="M652.095 355.519C646.201 355.519 643.24 352.841 643.24 347.486 643.24 342.132 646.201 339.454 652.095 339.454L669.804 339.454 669.804 344.809 652.961 344.809C650 344.809 648.52 345.711 648.52 347.486 648.52 349.262 650 350.164 652.961 350.164L660.95 350.164C666.844 350.164 669.804 352.841 669.804 358.196 669.804 363.551 666.844 366.229 660.95 366.229L643.24 366.229 643.24 360.902 660.084 360.902C663.045 360.902 664.525 360 664.525 358.224 664.525 356.449 663.045 355.547 660.084 355.547L652.095 355.547 652.095 355.519Z" fill="#FFFFFF" fill-rule="nonzero" fill-opacity="1"/><path d="M681.285 366.257 675.978 366.257 675.978 339.454 693.687 339.454C699.581 339.454 702.542 342.132 702.542 347.486 702.542 352.841 699.581 355.519 693.687 355.519L681.285 355.519 681.285 366.257ZM691.452 350.079C694.385 350.079 695.838 349.206 695.838 347.43 695.838 345.655 694.385 344.781 691.452 344.781L680.056 344.781 680.056 350.108 691.452 350.108 691.452 350.079Z" fill="#FFFFFF" fill-rule="nonzero" fill-opacity="1"/><path d="M708.659 360.902 706.369 366.257 700.587 366.257 712.123 339.454 717.905 339.454 729.441 366.257 723.659 366.257 721.369 360.902 708.659 360.902ZM718.994 355.519 714.972 346.162 710.95 355.519 718.994 355.519Z" fill="#FFFFFF" fill-rule="nonzero" fill-opacity="1"/><path d="M758.408 360.902 758.408 366.257 740.698 366.257C734.804 366.257 731.844 363.269 731.844 357.323L731.844 348.388C731.844 342.441 734.804 339.454 740.698 339.454L758.408 339.454 758.408 344.809 741.425 344.809C738.575 344.809 737.151 346.246 737.151 349.093L737.151 356.59C737.151 359.465 738.575 360.902 741.425 360.902L758.408 360.902Z" fill="#FFFFFF" fill-rule="nonzero" fill-opacity="1"/><path d="M768.743 360.902 790 360.902 790 366.257 763.436 366.257 763.436 339.454 790 339.454 790 344.809 768.743 344.809 768.743 350.164 790 350.164 790 355.519 768.743 355.519 768.743 360.902Z" fill="#FFFFFF" fill-rule="nonzero" fill-opacity="1"/><path d="M690.531 378.46 690.531 387 688.101 387 688.101 374.768 690.587 374.768 697.821 383.308 697.821 374.768 700.251 374.768 700.251 387 697.793 387 690.531 378.46Z" fill="#FFFFFF" fill-rule="nonzero" fill-opacity="1"/><path d="M705.084 384.548 714.777 384.548 714.777 387 702.654 387 702.654 374.768 714.777 374.768 714.777 377.22 705.084 377.22 705.084 379.672 714.777 379.672 714.777 382.124 705.084 382.124 705.084 384.548Z" fill="#FFFFFF" fill-rule="nonzero" fill-opacity="1"/><path d="M722.067 377.192 717.235 377.192 717.235 374.74 729.358 374.74 729.358 377.192 724.497 377.192 724.497 386.972 722.067 386.972 722.067 377.192Z" fill="#FFFFFF" fill-rule="nonzero" fill-opacity="1"/><path d="M734.162 386.972 730.531 374.74 733.073 374.74 735.447 382.716 737.821 374.74 740.363 374.74 742.737 382.716 745.112 374.74 747.654 374.74 744.022 386.972 741.48 386.972 739.106 378.996 736.732 386.972 734.162 386.972Z" fill="#FFFFFF" fill-rule="nonzero" fill-opacity="1"/><path d="M756.844 386.972 752.793 386.972C750.084 386.972 748.743 385.619 748.743 382.885L748.743 378.799C748.743 376.065 750.084 374.712 752.793 374.712L756.844 374.712C759.553 374.712 760.894 376.065 760.894 378.799L760.894 382.885C760.894 385.619 759.553 386.972 756.844 386.972ZM756.453 384.548C757.793 384.548 758.464 383.872 758.464 382.519L758.464 379.221C758.464 377.868 757.793 377.192 756.453 377.192L752.821 377.192C751.732 377.192 751.201 377.868 751.201 379.221L751.201 382.491C751.201 383.843 751.872 384.52 753.212 384.52L756.453 384.52 756.453 384.548Z" fill="#FFFFFF" fill-rule="nonzero" fill-opacity="1"/><path d="M766.927 382.096 765.754 382.096 765.754 387 763.324 387 763.324 374.768 771.425 374.768C774.134 374.768 775.475 375.98 775.475 378.432 775.475 380.884 774.134 382.096 771.425 382.096L770.67 382.096 776.369 387 772.654 387 766.927 382.096ZM771.006 379.644C772.346 379.644 773.017 379.25 773.017 378.432 773.017 377.615 772.346 377.22 771.006 377.22L765.754 377.22 765.754 379.672 771.006 379.672 771.006 379.644Z" fill="#FFFFFF" fill-rule="nonzero" fill-opacity="1"/><path d="M780.307 381.448 780.307 386.972 777.877 386.972 777.877 374.74 780.307 374.74 780.307 380.264 786.397 374.74 790.028 374.74 783.296 380.856 790.028 386.972 786.397 386.972 780.307 381.448Z" fill="#FFFFFF" fill-rule="nonzero" fill-opacity="1"/><path d="M519.022 348.445 508.352 348.445C507.877 348.445 507.486 348.642 507.207 349.008 506.927 349.375 506.788 349.797 506.788 350.305 506.788 350.784 506.927 351.207 507.179 351.545 507.458 351.883 507.821 352.052 508.324 352.052L514.609 352.052C516.313 352.052 517.654 352.7 518.631 353.969 519.525 355.124 519.972 356.533 519.972 358.224 519.972 359.915 519.525 361.325 518.631 362.48 517.654 363.748 516.313 364.397 514.609 364.397L503.184 364.397 503.184 360.085 513.883 360.085C514.33 360.085 514.693 359.887 514.972 359.521 515.252 359.155 515.363 358.703 515.363 358.196 515.363 357.689 515.224 357.266 514.972 356.928 514.721 356.59 514.358 356.421 513.883 356.421L507.598 356.421C505.894 356.421 504.553 355.801 503.548 354.532 502.654 353.405 502.207 351.996 502.207 350.305 502.207 348.642 502.654 347.261 503.548 346.105 504.553 344.837 505.894 344.189 507.598 344.189L518.995 344.189 518.995 348.445 519.022 348.445Z" fill="#FFFFFF" fill-rule="nonzero" fill-opacity="1"/><path d="M529.329 343.906 528.407 344.385C528.268 344.47 528.212 344.639 528.296 344.78 530.223 348.303 531.089 352.446 530.53 356.842 529.413 365.72 522.458 372.766 513.659 373.894 500.726 375.585 489.804 364.424 491.703 351.318 492.932 342.807 499.581 336.071 507.988 334.746 511.117 334.267 514.134 334.521 516.871 335.395 516.843 335.536 516.843 335.648 516.843 335.789 516.843 337.339 518.323 338.551 519.916 338.072 520.642 337.847 521.229 337.255 521.452 336.522 521.927 334.887 520.726 333.422 519.189 333.422 518.575 333.422 518.016 333.675 517.569 334.07 514.608 333.055 511.312 332.717 507.905 333.224 498.77 334.605 491.564 341.905 490.223 351.121 488.184 365.354 500.195 377.445 514.301 375.331 523.379 373.978 530.586 366.707 531.927 357.547 532.653 352.615 531.703 347.908 529.525 343.991 529.497 343.906 529.413 343.878 529.329 343.906Z" fill="#FFFFFF" fill-rule="nonzero" fill-opacity="1"/></g></g></g></g></svg>